# xmcd CD database file
#
# Track frame offsets:
#	150
#	41742
#	60628
#	103854
#	121779
#	134995
#	156923
#	178825
#	196720
#	214045
#	239853
#
# Disc length: 3396 seconds
#
# Revision: 1
# Processed by: cddbd v1.4PL0 Copyright (c) Steve Scherf et al.
# Submitted via: CDex 1.51
#
DISCID=a90d420b
DTITLE=Komorni orkester Vrhnika in mesani pevski zbor Mavrica - Pomladni gala koncert 2003 - Vlado Kreslin in velikani jazza
DYEAR=2003
DGENRE=Jazz
TTITLE0=A Salute To The Big Bands
TTITLE1=Moonlight Serenade
TTITLE2=Satchmo!
TTITLE3=Vsi so venci vejli
TTITLE4=Dekle moje
TTITLE5=Tista crna kitara
TTITLE6=Namesto koga roza cveti
TTITLE7=Ptic
TTITLE8=Se je cas
TTITLE9=Od visine se zvrti
TTITLE10=Tvoje jutro
EXTD=YEAR: 2003
EXTT0=
EXTT1=
EXTT2=
EXTT3=
EXTT4=
EXTT5=
EXTT6=
EXTT7=
EXTT8=
EXTT9=
EXTT10=
PLAYORDER=
